<?xml version="1.0" standalone="no"?><!DOCTYPE svg PUBLIC "-//W3C//DTD SVG 1.1//EN" "http://www.w3.org/Graphics/SVG/1.1/DTD/svg11.dtd"><svg t="1512293726889" class="icon" style="" viewBox="0 0 1024 1024" version="1.1" xmlns="http://www.w3.org/2000/svg" p-id="5984" xmlns:xlink="http://www.w3.org/1999/xlink" width="200" height="200"><defs><style type="text/css"></style></defs><path d="M686.22 327.5A182.32 182.32 0 0 0 512.35 455a182.29 182.29 0 0 0-173.86-127.51c-100.64 0-182.24 81.6-182.24 182.24a182.25 182.25 0 0 0 356.1 54.71A182.3 182.3 0 0 0 686.22 692c100.63 0 182.23-81.59 182.23-182.23S786.85 327.5 686.22 327.5z m0 320.59a138.36 138.36 0 1 1 138.35-138.36 138.35 138.35 0 0 1-138.35 138.36z m-347.74 0a138.36 138.36 0 1 1 138.35-138.36 138.35 138.35 0 0 1-138.34 138.36z" fill="#9CDCF8" p-id="5985"></path><path d="M646.96 257.96a41.38 41.39 0 1 0 82.76 0 41.38 41.39 0 1 0-82.76 0Z" fill="#9CDCF8" p-id="5986"></path><path d="M296.99 257.96a41.38 41.39 0 1 0 82.76 0 41.38 41.39 0 1 0-82.76 0Z" fill="#9CDCF8" p-id="5987"></path><path d="M296.99 765.06a41.38 41.39 0 1 0 82.76 0 41.38 41.39 0 1 0-82.76 0Z" fill="#9CDCF8" p-id="5988"></path><path d="M646.96 765.06a41.38 41.39 0 1 0 82.76 0 41.38 41.39 0 1 0-82.76 0Z" fill="#9CDCF8" p-id="5989"></path></svg>