<?xml version="1.0" standalone="no"?><!DOCTYPE svg PUBLIC "-//W3C//DTD SVG 1.1//EN" "http://www.w3.org/Graphics/SVG/1.1/DTD/svg11.dtd"><svg t="1512293685964" class="icon" style="" viewBox="0 0 1024 1024" version="1.1" xmlns="http://www.w3.org/2000/svg" p-id="4435" xmlns:xlink="http://www.w3.org/1999/xlink" width="200" height="200"><defs><style type="text/css"></style></defs><path d="M246.59 424.18s-154.13-24.24-179.44 110c-13.94 74.16 20.49 119.32 64.57 146.56 41 25.31 81.94 28.1 81.94 28.1h605.9s30.89-1.5 58.67-12c43.55-16.52 92.24-53.52 80-140.72-14.16-101.46-122.81-97.6-122.81-97.6s3.43-79.16-79.8-104.36c-57.28-17.27-94.39 7.4-94.39 7.4s-66.61-114.12-205.4-106.4c-182.96 10.28-209.24 169.02-209.24 169.02z" fill="#78A4D6" p-id="4436"></path><path d="M945.59 556.32c-17.27-91.06-121.74-86.45-121.74-86.45s4.83-78.62-73.79-104c-47.73-15.44-93.1 8.37-93.1 8.37s-69.4-117-199.71-107.58c-175.8 12.73-202.18 171.9-202.18 171.9S107.48 407.13 79.7 535.3c-30 139 130.75 160.78 130.75 160.78h284s62.21-4.83 87.41-32.5c34.21-37.43 36-92.35-4.29-121.84-36.36-26.6-80.55-20.7-111.55-9-12.55 4.72-13.73 6.54-15.34 6.22-1.18-0.21-4.61-3.65 2.9-9.12 9.44-6.86 20.16-13.41 38.72-17.7 62.85-14.48 122 16.95 138.25 64.89a140.63 140.63 0 0 1-4.08 102.54c-4.4 9.87-6.44 9.65-6.33 13.19 0.11 3.86 4.83 3.32 4.83 3.32H826.1c0.11-0.08 143.73-11.91 119.49-139.76z" fill="#C0E7FA" p-id="4437"></path><path d="M494.36 696s62.21-4.83 87.41-32.5c23-25.1 31.21-57.92 22.09-85.81a74.09 74.09 0 0 0-16.2-26.92 14.64 14.64 0 0 0-1.82-1.82c-0.75-0.75-1.5-1.5-2.36-2.25-1.93-1.72-4-3.43-6.11-5A95.79 95.79 0 0 0 533.5 524h-0.64c49.55 30.25 32.93 82.16-0.64 100.61-26.49 14.59-84.3 17.27-102.54 13.51C320.39 616 324 557.93 326.61 535.3c0.64-6.11 4.4-8.15 1.61-9.65s-11 4.29-14.59 7c-40.22 30.25-31.1 72-31.1 72s-60.81 19.95-122.59-12.33c-56.85-29.92-62.1-90.52-62.42-101.79L95.9 493c-1.5 2.68-3.86 6.65-6.44 12.23-1 2.15-1.93 4.4-2.9 6.65-0.32 0.75-0.54 1.5-0.86 2.25-1 2.57-1.82 5.26-2.68 7.94-0.32 1-0.64 2-1 3.11-0.75 2.57-1.39 5.15-1.93 7.83-1 4.08-1.82 8.37-2.57 13.19-0.64 3.86-1 7.51-1.29 11.15 0 0.43-0.11 0.75-0.11 1.18-0.21 3-0.32 5.9-0.32 8.8v3.54c0 2 0.11 4.08 0.21 6.11C82.92 678.7 210.23 696 210.23 696h284.13zM948.27 579.28a161.72 161.72 0 0 0-2.68-22.63c-0.32-1.82-0.75-3.54-1.07-5.15l-0.32-1.61c-0.21-1.07-0.54-2-0.75-3.11-6.11-22.2-17.8-38-31.53-49.23a131.37 131.37 0 0 0-11.26-8c-0.32-0.21 32.5 95.78-84.3 128.71-41.08 11.58-137.18 13.94-179.23-15.34a140.72 140.72 0 0 1-10.3 76.26c-4.4 9.87-6.44 9.65-6.33 13.19 0.11 3.86 4.83 3.32 4.83 3.32h201.09c-0.21 0.31 125.71-10.12 121.85-116.41z" fill="#9CDCF8" p-id="4438"></path><path d="M430.75 342.02a81.3 52.45 0 1 0 162.6 0 81.3 52.45 0 1 0-162.6 0Z" fill="#FFFFFF" p-id="4439"></path><path d="M372.85 835L361 828.12l11-0.18a4.69 4.69 0 0 0-0.16-9.37l-26.62 0.43-18.09-10.45 19.16-11.07 22 4.43a4.69 4.69 0 1 0 1.85-9.19l-11.54-2.33 14.3-8.26a9.46 9.46 0 1 0-9.46-16.39l-11.9 6.87 5.39-9.06a4.69 4.69 0 0 0-8.06-4.79l-13.97 23.45-17.26 10V769l14.25-20.08a4.69 4.69 0 0 0-7.65-5.42l-6.6 9.31v-13.46a9.46 9.46 0 1 0-18.92 0v13.53l-6.48-9.15a4.69 4.69 0 0 0-7.65 5.42l14.13 19.93v23.08l-20.91-12.07-8.14-20.68a4.68 4.68 0 0 0-8.72 3.43l3.83 9.72-11.78-6.8a9.46 9.46 0 0 0-9.47 16.39l11.95 6.9-12.23 0.47a4.69 4.69 0 0 0 0.36 9.36l27.11-1 18.56 10.72-20 11.53-24.88-1.35a4.69 4.69 0 0 0-0.5 9.36l10.54 0.57-10.91 6.29a9.46 9.46 0 0 0 9.47 16.34l12.35-7.13-4.58 11.09a4.69 4.69 0 0 0 8.67 3.57l9.21-22.34 20.08-11.59v26.77l-13.9 19.59a4.69 4.69 0 0 0 7.65 5.42l6.24-8.81v9.84a9.46 9.46 0 0 0 18.92 0v-10.44l6.84 9.65a4.69 4.69 0 0 0 7.65-5.42l-14.49-20.42v-26.19l19.77 11.41 7.88 21.38a4.68 4.68 0 1 0 8.79-3.24l-4-10.81 13.29 7.67a9.46 9.46 0 1 0 9.48-16.34z" fill="#9CDCF8" p-id="4440"></path><path d="M343.45 818l-16.34-9.44 16.34-9.44a36.49 36.49 0 0 0-9.45-16.39l-16.36 9.44v-18.9a36.6 36.6 0 0 0-18.92 0v18.91l-16.39-9.46a36.48 36.48 0 0 0-9.47 16.38l16.39 9.47-16.37 9.43a36.49 36.49 0 0 0 9.47 16.38l16.38-9.46v18.91a36.6 36.6 0 0 0 18.92 0v-18.9l16.35 9.44a36.49 36.49 0 0 0 9.45-16.37z" fill="#C0E7FA" p-id="4441"></path><path d="M784.85 835L773 828.12l11-0.18a4.69 4.69 0 0 0-0.16-9.37l-26.62 0.43-18.09-10.45 19.16-11.07 22 4.43a4.69 4.69 0 1 0 1.85-9.19l-11.54-2.33 14.3-8.26a9.46 9.46 0 1 0-9.46-16.39l-11.9 6.87 5.39-9.06a4.69 4.69 0 0 0-8.06-4.79l-13.97 23.45-17.26 10V769l14.25-20.08a4.69 4.69 0 0 0-7.65-5.42l-6.6 9.31v-13.46a9.46 9.46 0 1 0-18.92 0v13.53l-6.48-9.15a4.69 4.69 0 0 0-7.65 5.42l14.13 19.93v23.08l-20.91-12.07-8.14-20.68a4.68 4.68 0 0 0-8.72 3.43l3.83 9.72-11.78-6.8a9.46 9.46 0 0 0-9.47 16.39l11.95 6.9-12.23 0.47a4.69 4.69 0 0 0 0.36 9.36l27.11-1 18.56 10.72-20 11.53-24.88-1.35a4.69 4.69 0 0 0-0.5 9.36l10.54 0.57-10.91 6.29a9.46 9.46 0 0 0 9.47 16.34l12.35-7.13-4.58 11.09a4.69 4.69 0 0 0 8.67 3.57l9.21-22.34 20.08-11.59v26.77l-13.9 19.59a4.69 4.69 0 0 0 7.65 5.42l6.24-8.81v9.84a9.46 9.46 0 0 0 18.92 0v-10.44l6.84 9.65a4.69 4.69 0 0 0 7.65-5.42l-14.49-20.42v-26.19l19.77 11.41 7.88 21.38a4.68 4.68 0 1 0 8.79-3.24l-4-10.81 13.29 7.67a9.46 9.46 0 1 0 9.48-16.34z" fill="#9CDCF8" p-id="4442"></path><path d="M755.45 818l-16.34-9.44 16.34-9.44a36.49 36.49 0 0 0-9.45-16.39l-16.36 9.44v-18.9a36.6 36.6 0 0 0-18.92 0v18.91l-16.39-9.46a36.48 36.48 0 0 0-9.47 16.38l16.39 9.47-16.37 9.43a36.49 36.49 0 0 0 9.47 16.38l16.38-9.46v18.91a36.6 36.6 0 0 0 18.92 0v-18.9l16.35 9.44a36.49 36.49 0 0 0 9.45-16.37z" fill="#C0E7FA" p-id="4443"></path><path d="M577 876l-11.84-6.84 11-0.18a4.69 4.69 0 0 0-0.16-9.37l-26.62 0.43-18.09-10.45 19.16-11.07 22 4.43a4.69 4.69 0 1 0 1.85-9.19l-11.54-2.33 14.3-8.26a9.46 9.46 0 1 0-9.46-16.39l-11.9 6.87 5.39-9.06a4.69 4.69 0 0 0-8.09-4.79l-13.92 23.43-17.26 10V810l14.25-20.08a4.69 4.69 0 0 0-7.65-5.42l-6.6 9.31v-13.44a9.46 9.46 0 1 0-18.92 0v13.53l-6.48-9.15a4.69 4.69 0 0 0-7.65 5.42l14.13 19.93v23.08L482 821.11l-8.14-20.68a4.68 4.68 0 0 0-8.72 3.43l3.83 9.72-11.78-6.8a9.46 9.46 0 0 0-9.47 16.39l11.95 6.9-12.23 0.47a4.69 4.69 0 0 0 0.36 9.36l27.11-1 18.56 10.72-20 11.53-24.88-1.35a4.69 4.69 0 0 0-0.5 9.36l10.54 0.57L447.7 876a9.46 9.46 0 0 0 9.47 16.38l12.35-7.13-4.58 11.09a4.69 4.69 0 0 0 8.67 3.57l9.21-22.34L502.9 866v26.77L489 912.31a4.69 4.69 0 0 0 7.65 5.42l6.24-8.81v9.84a9.46 9.46 0 0 0 18.92 0v-10.43l6.84 9.65a4.69 4.69 0 0 0 7.65-5.42l-14.49-20.42V866l19.77 11.41 7.88 21.38a4.68 4.68 0 1 0 8.79-3.24l-4-10.81 13.29 7.67A9.46 9.46 0 1 0 577 876z" fill="#9CDCF8" p-id="4444"></path><path d="M547.63 859l-16.34-9.44 16.34-9.44a36.49 36.49 0 0 0-9.45-16.39l-16.36 9.44v-18.9a36.6 36.6 0 0 0-18.92 0v18.91l-16.39-9.46A36.48 36.48 0 0 0 477 840.1l16.39 9.47L477 859a36.49 36.49 0 0 0 9.47 16.38L502.9 866v18.91a36.6 36.6 0 0 0 18.92 0V866l16.35 9.44a36.49 36.49 0 0 0 9.46-16.44z" fill="#C0E7FA" p-id="4445"></path></svg>