<?xml version="1.0" standalone="no"?><!DOCTYPE svg PUBLIC "-//W3C//DTD SVG 1.1//EN" "http://www.w3.org/Graphics/SVG/1.1/DTD/svg11.dtd"><svg t="1512293718502" class="icon" style="" viewBox="0 0 1024 1024" version="1.1" xmlns="http://www.w3.org/2000/svg" p-id="5640" xmlns:xlink="http://www.w3.org/1999/xlink" width="200" height="200"><defs><style type="text/css"></style></defs><path d="M907.94 434.07a22.26 22.26 0 0 1-22.26 22.27H137a22.26 22.26 0 0 1-22.26-22.27A22.26 22.26 0 0 1 137 411.81h748.7a22.26 22.26 0 0 1 22.26 22.26zM907.94 750.72A22.26 22.26 0 0 1 885.68 773H137a22.26 22.26 0 0 1-22.26-22.27A22.26 22.26 0 0 1 137 728.46h748.7a22.26 22.26 0 0 1 22.26 22.26zM342.23 275.73A22.26 22.26 0 0 1 320 298H137a22.26 22.26 0 0 1-22.26-22.27A22.26 22.26 0 0 1 137 253.46h183a22.26 22.26 0 0 1 22.26 22.26zM885.68 253.46H419.84a22.26 22.26 0 0 0 0 44.53h465.84a22.26 22.26 0 0 0 0-44.53zM907.94 592.42a22.26 22.26 0 0 1-22.26 22.27h-183a22.26 22.26 0 0 1-22.26-22.27 22.26 22.26 0 0 1 22.26-22.26h183a22.26 22.26 0 0 1 22.26 22.26zM602.83 570.15H137a22.26 22.26 0 0 0 0 44.53h465.83a22.26 22.26 0 0 0 0-44.53z" fill="#9CDCF8" p-id="5641"></path></svg>