<?xml version="1.0" standalone="no"?><!DOCTYPE svg PUBLIC "-//W3C//DTD SVG 1.1//EN" "http://www.w3.org/Graphics/SVG/1.1/DTD/svg11.dtd"><svg t="1512293708304" class="icon" style="" viewBox="0 0 1024 1024" version="1.1" xmlns="http://www.w3.org/2000/svg" p-id="5287" xmlns:xlink="http://www.w3.org/1999/xlink" width="200" height="200"><defs><style type="text/css"></style></defs><path d="M919.41 315.62c-18.37-32.55-49.66-50.41-88.22-50.41h-1.31c-37.86 0.4-76.54 21-90 47.83-24.17 48.35-11.49 93.33-10.94 95.22h0.12a22.17 22.17 0 0 0 43.24-7 21.87 21.87 0 0 0-1.13-6.64c-1.3-5.86-6.1-32.91 8.33-61.78 4.78-9.57 26.44-23.09 50.82-23.34 23.07-0.31 39.91 9.14 50.49 27.88a78.47 78.47 0 0 1 10 35.65c0.68 14.35-5.24 26.61-12.47 40-14.75 27.33-62.17 33.3-79.34 33.3H110.43c-0.23 0-0.45-0.07-0.67-0.07s-0.45 0.07-0.67 0.07h-1.2v0.13a22.11 22.11 0 0 0 0 44.08v0.09h1c0.31 0 0.61 0.1 0.92 0.1s0.61-0.08 0.92-0.1H799c6 0 88.3-1 118.27-56.55 9.23-17.1 19-37.49 17.74-63.17-0.94-20.29-6.01-38.37-15.6-55.29z" fill="#9CDCF8" p-id="5288"></path><path d="M108.74 317.22v0.2h498.35l2-0.38c3.43-0.63 34-7.12 52.77-37.62 8.84-14.36 12.95-28.35 12.55-42.79a78 78 0 0 0-10.22-38c-13-22.94-34.41-35.35-62.05-35.88-24.4-0.7-46.71 10.62-61.33 30.44a70.72 70.72 0 0 0-13.62 38 21.07 21.07 0 0 0-0.29 2.85 21.65 21.65 0 0 0 0.24 2.34c0 0.57 0.06 1 0.07 1.25h0.06a22.19 22.19 0 0 0 44.1-3.58v-0.14a26.76 26.76 0 0 1 5.13-14.39 29.65 29.65 0 0 1 24.19-12.44h0.63c12.05 0.24 19.1 4.11 24.34 13.38 3.53 6.25 4.34 11.3 4.51 17.42 0.16 5.7-1.68 11.37-6 18.36a40.16 40.16 0 0 1-21.82 16.9h-490a22.14 22.14 0 1 0-3.58 44.1zM108.74 619.14v-0.2h653.8l2 0.38c3.43 0.63 34 7.12 52.77 37.62 8.84 14.36 12.95 28.35 12.55 42.79a78 78 0 0 1-10.22 38c-13 22.94-34.41 35.35-62.05 35.88-24.4 0.7-46.71-10.62-61.33-30.44a70.72 70.72 0 0 1-13.62-38 21.07 21.07 0 0 1-0.29-2.85 21.65 21.65 0 0 1 0.24-2.34c0-0.57 0.06-1 0.07-1.25h0.06a22.19 22.19 0 0 1 44.1 3.58v0.14a26.76 26.76 0 0 0 5.13 14.39 29.65 29.65 0 0 0 24.19 12.44h0.63c12.05-0.24 19.1-4.11 24.34-13.38 3.53-6.25 4.34-11.3 4.51-17.42 0.16-5.7-1.68-11.37-6-18.36a40.16 40.16 0 0 0-21.82-16.9H112.33a22.14 22.14 0 1 1-3.58-44.1z" fill="#9CDCF8" p-id="5289"></path><path d="M298.03 381.51a41.38 41.39 0 1 0 82.76 0 41.38 41.39 0 1 0-82.76 0Z" fill="#9CDCF8" p-id="5290"></path><path d="M619.41 381.51A41.39 41.39 0 1 1 578 340.13a41.4 41.4 0 0 1 41.41 41.38z" fill="#9CDCF8" p-id="5291"></path><path d="M298.09 726.7a41.38 41.39 0 1 0 82.76 0 41.38 41.39 0 1 0-82.76 0Z" fill="#9CDCF8" p-id="5292"></path><path d="M619.47 726.7a41.39 41.39 0 1 1-41.39-41.39 41.4 41.4 0 0 1 41.39 41.39z" fill="#9CDCF8" p-id="5293"></path><path d="M178.72 554.85a41.38 41.39 0 1 0 82.76 0 41.38 41.39 0 1 0-82.76 0Z" fill="#9CDCF8" p-id="5294"></path><path d="M500.1 554.85a41.39 41.39 0 1 1-41.39-41.39 41.4 41.4 0 0 1 41.39 41.39zM738.72 554.85a41.39 41.39 0 1 1-41.39-41.39 41.4 41.4 0 0 1 41.39 41.39z" fill="#9CDCF8" p-id="5295"></path></svg>