<?xml version="1.0" standalone="no"?><!DOCTYPE svg PUBLIC "-//W3C//DTD SVG 1.1//EN" "http://www.w3.org/Graphics/SVG/1.1/DTD/svg11.dtd"><svg t="1512293714754" class="icon" style="" viewBox="0 0 1024 1024" version="1.1" xmlns="http://www.w3.org/2000/svg" p-id="5526" xmlns:xlink="http://www.w3.org/1999/xlink" width="200" height="200"><defs><style type="text/css"></style></defs><path d="M909.61 671.57a22.26 22.26 0 0 1-22.26 22.27h-748.7a22.26 22.26 0 0 1-22.26-22.27 22.26 22.26 0 0 1 22.26-22.26h748.7a22.26 22.26 0 0 1 22.26 22.26zM343.9 354.88a22.26 22.26 0 0 1-22.26 22.27h-183a22.26 22.26 0 0 1-22.26-22.27 22.26 22.26 0 0 1 22.26-22.26h183a22.26 22.26 0 0 1 22.26 22.26zM887.35 332.61H421.51a22.26 22.26 0 0 0 0 44.53h465.84a22.26 22.26 0 0 0 0-44.53zM909.61 513.22a22.26 22.26 0 0 1-22.26 22.27h-183a22.26 22.26 0 0 1-22.26-22.27A22.26 22.26 0 0 1 704.36 491h183a22.26 22.26 0 0 1 22.26 22.26zM604.49 491H138.65a22.26 22.26 0 0 0 0 44.53h465.84a22.26 22.26 0 0 0 0-44.53z" fill="#9CDCF8" p-id="5527"></path></svg>