<?xml version="1.0" standalone="no"?><!DOCTYPE svg PUBLIC "-//W3C//DTD SVG 1.1//EN" "http://www.w3.org/Graphics/SVG/1.1/DTD/svg11.dtd"><svg t="1512293695381" class="icon" style="" viewBox="0 0 1024 1024" version="1.1" xmlns="http://www.w3.org/2000/svg" p-id="4811" xmlns:xlink="http://www.w3.org/1999/xlink" width="200" height="200"><defs><style type="text/css"></style></defs><path d="M946.34 871.63a22.26 22.26 0 0 1-22.26 22.27H100.49a22.26 22.26 0 0 1-22.26-22.27 22.26 22.26 0 0 1 22.26-22.26h823.59a22.26 22.26 0 0 1 22.26 22.26zM161 512.84a41.38 41.38 0 1 1-41.38-41.39A41.39 41.39 0 0 1 161 512.84z" fill="#9CDCF8" p-id="4812"></path><path d="M340.01 512.84a41.38 41.39 0 1 0 82.76 0 41.38 41.39 0 1 0-82.76 0Z" fill="#9CDCF8" p-id="4813"></path><path d="M904.95 512.84m-41.38 0a41.38 41.38 0 1 0 82.76 0 41.38 41.38 0 1 0-82.76 0Z" fill="#9CDCF8" p-id="4814"></path><path d="M684.56 512.84a41.39 41.39 0 1 1-41.39-41.39 41.4 41.4 0 0 1 41.39 41.39z" fill="#9CDCF8" p-id="4815"></path><path d="M250.5 323.42m-41.38 0a41.38 41.38 0 1 0 82.76 0 41.38 41.38 0 1 0-82.76 0Z" fill="#9CDCF8" p-id="4816"></path><path d="M553.67 323.42A41.39 41.39 0 1 1 512.28 282a41.38 41.38 0 0 1 41.39 41.42z" fill="#9CDCF8" p-id="4817"></path><path d="M732.66 323.42a41.39 41.38 0 1 0 82.78 0 41.39 41.38 0 1 0-82.78 0Z" fill="#9CDCF8" p-id="4818"></path><path d="M291.88 702.27a41.38 41.38 0 1 1-41.39-41.4 41.39 41.39 0 0 1 41.39 41.4zM553.67 702.27a41.39 41.39 0 1 1-41.38-41.4 41.38 41.38 0 0 1 41.38 41.4zM815.45 702.27a41.39 41.39 0 1 1-41.4-41.4 41.4 41.4 0 0 1 41.4 41.4z" fill="#9CDCF8" p-id="4819"></path></svg>