<?xml version="1.0" standalone="no"?><!DOCTYPE svg PUBLIC "-//W3C//DTD SVG 1.1//EN" "http://www.w3.org/Graphics/SVG/1.1/DTD/svg11.dtd"><svg t="1512293730695" class="icon" style="" viewBox="0 0 1024 1024" version="1.1" xmlns="http://www.w3.org/2000/svg" p-id="6102" xmlns:xlink="http://www.w3.org/1999/xlink" width="200" height="200"><defs><style type="text/css"></style></defs><path d="M686.87 327.5A182.32 182.32 0 0 0 513 455a182.29 182.29 0 0 0-173.86-127.51c-100.64 0-182.24 81.6-182.24 182.24a182.25 182.25 0 0 0 356.1 54.7A182.3 182.3 0 0 0 686.87 692c100.63 0 182.23-81.63 182.23-182.27S787.5 327.5 686.87 327.5z m0 320.59a138.36 138.36 0 1 1 138.35-138.36 138.35 138.35 0 0 1-138.35 138.36z m-347.74 0a138.36 138.36 0 1 1 138.36-138.36 138.35 138.35 0 0 1-138.35 138.36z" fill="#9CDCF8" p-id="6103"></path><path d="M647.61 257.96a41.38 41.39 0 1 0 82.76 0 41.38 41.39 0 1 0-82.76 0Z" fill="#9CDCF8" p-id="6104"></path><path d="M297.64 257.96a41.38 41.39 0 1 0 82.76 0 41.38 41.39 0 1 0-82.76 0Z" fill="#9CDCF8" p-id="6105"></path><path d="M469.96 257.96a41.38 41.39 0 1 0 82.76 0 41.38 41.39 0 1 0-82.76 0Z" fill="#9CDCF8" p-id="6106"></path><path d="M297.64 765.06a41.38 41.39 0 1 0 82.76 0 41.38 41.39 0 1 0-82.76 0Z" fill="#9CDCF8" p-id="6107"></path><path d="M469.96 765.06a41.38 41.39 0 1 0 82.76 0 41.38 41.39 0 1 0-82.76 0Z" fill="#9CDCF8" p-id="6108"></path><path d="M647.61 765.06a41.38 41.39 0 1 0 82.76 0 41.38 41.39 0 1 0-82.76 0Z" fill="#9CDCF8" p-id="6109"></path></svg>