<?xml version="1.0" standalone="no"?><!DOCTYPE svg PUBLIC "-//W3C//DTD SVG 1.1//EN" "http://www.w3.org/Graphics/SVG/1.1/DTD/svg11.dtd"><svg t="1512293620572" class="icon" style="" viewBox="0 0 1024 1024" version="1.1" xmlns="http://www.w3.org/2000/svg" p-id="2037" xmlns:xlink="http://www.w3.org/1999/xlink" width="200" height="200"><defs><style type="text/css"></style></defs><path d="M246.79 424.34S92.67 400.1 67.35 534.39C53.41 608.5 87.84 653.66 131.92 680.9c41 25.31 81.94 28.1 81.94 28.1h605.9s30.89-1.5 58.67-12c43.55-16.52 92.24-53.52 80-140.72-14.16-101.46-122.81-97.6-122.81-97.6s3.43-79.16-79.8-104.36c-57.28-17.27-94.39 7.4-94.39 7.4s-66.61-114.12-205.4-106.4c-182.96 10.29-209.24 169.02-209.24 169.02z" fill="#78A4D6" p-id="2038"></path><path d="M945.79 556.48C928.52 465.42 824 470 824 470s4.83-78.62-73.79-104c-47.73-15.44-93.1 8.37-93.1 8.37s-69.4-117-199.71-107.58c-175.75 12.76-202.13 171.93-202.13 171.93S107.68 407.29 79.9 535.46c-30 139 130.75 160.78 130.75 160.78h284s62.21-4.83 87.41-32.5c34.21-37.43 36-92.35-4.29-121.84-36.36-26.6-80.55-20.7-111.55-9-12.55 4.72-13.73 6.54-15.34 6.22-1.18-0.21-4.61-3.65 2.9-9.12 9.44-6.86 20.16-13.41 38.72-17.7 62.85-14.48 122 16.95 138.25 64.89a140.63 140.63 0 0 1-4.08 102.54c-4.4 9.87-6.44 9.65-6.33 13.19 0.11 3.86 4.83 3.32 4.83 3.32H826.3c0.11-0.11 143.7-11.91 119.49-139.76z" fill="#C0E7FA" p-id="2039"></path><path d="M494.56 696.13s62.21-4.83 87.41-32.5c23-25.1 31.21-57.92 22.09-85.81a74.09 74.09 0 0 0-16.2-26.92 14.64 14.64 0 0 0-1.82-1.82c-0.75-0.75-1.5-1.5-2.36-2.25-1.93-1.72-4-3.43-6.11-5a95.79 95.79 0 0 0-43.87-17.7h-0.64c49.55 30.25 32.93 82.16-0.64 100.61-26.49 14.59-84.3 17.27-102.54 13.51-109.29-22.09-105.65-80.12-103.07-102.75 0.64-6.11 4.4-8.15 1.61-9.65s-11 4.29-14.59 7c-40.22 30.25-31.1 72-31.1 72s-60.81 19.95-122.59-12.33C103.28 562.49 98 501.89 97.71 490.63l-1.61 2.57c-1.5 2.68-3.86 6.65-6.44 12.23-1 2.15-1.93 4.4-2.9 6.65-0.32 0.75-0.54 1.5-0.86 2.25-1 2.57-1.82 5.26-2.68 7.94-0.32 1-0.64 2-1 3.11-0.75 2.57-1.39 5.15-1.93 7.83-1 4.08-1.82 8.37-2.57 13.19-0.64 3.86-1 7.51-1.29 11.15 0 0.43-0.11 0.75-0.11 1.18-0.21 3-0.32 5.9-0.32 8.8v3.54c0 2 0.11 4.08 0.21 6.11 6.86 101.68 134.18 118.95 134.18 118.95h284.17zM948.47 579.44a161.72 161.72 0 0 0-2.68-22.63c-0.32-1.82-0.75-3.54-1.07-5.15l-0.32-1.61c-0.21-1.07-0.54-2-0.75-3.11-6.11-22.2-17.8-38-31.53-49.23a131.37 131.37 0 0 0-11.26-8c-0.32-0.21 32.5 95.78-84.3 128.71-41.1 11.58-137.2 13.9-179.24-15.42A140.72 140.72 0 0 1 627 679.29c-4.4 9.87-6.44 9.65-6.33 13.19 0.11 3.86 4.83 3.32 4.83 3.32h201.12c-0.21 0.33 125.71-10.07 121.85-116.36z" fill="#9CDCF8" p-id="2040"></path><path d="M430.95 342.19a81.3 52.45 0 1 0 162.6 0 81.3 52.45 0 1 0-162.6 0Z" fill="#FFFFFF" p-id="2041"></path><path d="M651.61 743c-2.7 25.2-36.6 81.3-36.6 117.1 0 25.7 16.4 46.5 36.6 46.5s36.6-20.8 36.6-46.5c0-37.35-34.3-91.25-36.6-117.1z" fill="#9CDCF8" p-id="2042"></path><path d="M570.92 743h-89.67l-29.48 115.48 48.87-0.38-22.36 99.64 90.79-134.23H527z m-7.69 83.62c-14.45 22.06-78.44 116.25-78.44 116.25l19.89-87.82-48.84 0.19 27.86-109.08h81.9l-44 80.46z" fill="#F58A33" p-id="2043"></path><path d="M558 750.72h-70.79l-16.57 64.89h51.9L558 750.72z" fill="#FCB958" p-id="2044"></path><path d="M510 850.82l-21 82.71s36.6-57.63 65.9-102.34H514l8.5-15.57h-51.86l-9 35.12z" fill="#F58A33" p-id="2045"></path><path d="M275.45 849.02l57.62 0 0 57.63-57.62 0 0-57.63Z" fill="#9CDCF8" p-id="2046"></path><path d="M293 849a17.22 17.22 0 1 0 0 34.44h22.44a17.22 17.22 0 1 0 0-34.44z" fill="#C0E7FA" p-id="2047"></path><path d="M404.26 807.62A19.36 19.36 0 0 1 384.91 827h-24.68a19.35 19.35 0 0 1-19.36-19.36v-24.7a19.35 19.35 0 0 1 19.36-19.35h24.68a19.35 19.35 0 0 1 19.36 19.35z" fill="#9CDCF8" p-id="2048"></path><path d="M360.23 763.59a18.54 18.54 0 1 0 0 37.06h24.68a18.54 18.54 0 1 0 0-37.06z" fill="#C0E7FA" p-id="2049"></path></svg>